<svg xmlns="http://www.w3.org/2000/svg" width="83.271" height="77.365" viewBox="0 0 83.271 77.365">
  <path id="Icon_ionic-md-heart-empty" data-name="Icon ionic-md-heart-empty" d="M62.3,4.5A24.038,24.038,0,0,0,44.01,13.076,24.038,24.038,0,0,0,25.724,4.5,22.1,22.1,0,0,0,3.375,26.986c0,15.531,13.812,28,34.735,47.219l5.9,5.314,5.9-5.314C70.834,54.982,84.646,42.517,84.646,26.986A22.1,22.1,0,0,0,62.3,4.5ZM46.511,68.833l-.821.762-1.68,1.524-1.68-1.524-.821-.762C31.663,59.787,23.146,51.973,17.539,45c-5.47-6.779-7.893-12.327-7.893-18.012A16.25,16.25,0,0,1,14.276,15.4a15.9,15.9,0,0,1,11.448-4.65,17.917,17.917,0,0,1,13.5,6.349l4.786,5.685L48.8,17.1a17.851,17.851,0,0,1,13.5-6.349A15.977,15.977,0,0,1,73.764,15.4a16.283,16.283,0,0,1,4.63,11.585c0,5.666-2.442,11.233-7.893,18.012C64.875,51.973,56.377,59.787,46.511,68.833Z" transform="translate(-2.375 -3.5)" fill="#a19bb5" stroke="#a19bb5" stroke-width="2"/>
</svg>
