<?xml version="1.0" standalone="no"?>
<!DOCTYPE svg PUBLIC "-//W3C//DTD SVG 20010904//EN"
 "http://www.w3.org/TR/2001/REC-SVG-20010904/DTD/svg10.dtd">
<svg version="1.0" xmlns="http://www.w3.org/2000/svg"
 width="512.000000pt" height="512.000000pt" viewBox="0 0 512.000000 512.000000"
 preserveAspectRatio="xMidYMid meet">

<g transform="translate(0.000000,512.000000) scale(0.100000,-0.100000)"
fill="#000000" stroke="none">
<path d="M1055 4591 c-49 -27 -243 -137 -430 -245 -361 -208 -409 -245 -433
-323 -25 -85 -4 -177 53 -235 30 -30 731 -444 855 -505 92 -45 214 -22 280 53
54 62 60 90 60 270 l0 164 1133 0 c1243 0 1215 1 1401 -61 286 -95 520 -296
658 -565 80 -157 112 -275 128 -473 8 -97 13 -119 35 -153 83 -125 273 -92
317 54 14 46 -1 241 -27 363 -123 576 -594 1043 -1170 1160 -153 31 -286 34
-1377 35 l-1098 0 0 165 c0 157 -1 168 -25 215 -41 81 -123 130 -217 130 -44
0 -68 -8 -143 -49z"/>
<path d="M105 2663 c-87 -45 -111 -103 -101 -241 27 -393 180 -729 454 -998
252 -246 570 -392 927 -424 55 -5 594 -9 1198 -10 l1097 0 0 -165 c0 -157 1
-168 25 -215 41 -80 123 -130 215 -130 64 0 71 3 540 274 398 229 444 263 468
343 25 85 4 177 -53 235 -30 30 -731 444 -855 505 -117 58 -263 6 -319 -112
-19 -40 -21 -63 -21 -210 l0 -165 -1132 0 c-1244 0 -1216 -1 -1402 61 -286 95
-520 296 -658 565 -80 157 -112 275 -128 473 -8 97 -13 119 -35 153 -46 69
-151 98 -220 61z"/>
</g>
</svg>
